<svg width="96" height="96" viewBox="0 0 96 96" fill="none" xmlns="http://www.w3.org/2000/svg">
  <rect x="6" y="6" width="84" height="84" rx="22" fill="#F7F7F9"/>
  <rect x="6" y="6" width="84" height="84" rx="22" stroke="#2670DC" stroke-width="4"/>
  <path d="M31 70V26h20.5c9.5 0 16 5.2 16 13.4 0 4.8-2.4 8.7-6.5 10.8 5 1.8 8 5.9 8 11.2C69 70 62.2 75 51.8 75H31v-5Zm10.5-25.1h8.4c4.5 0 7.1-2.1 7.1-5.6 0-3.5-2.6-5.4-7.2-5.4h-8.3v11Zm0 22.1h9.7c4.7 0 7.3-2.2 7.3-5.9 0-3.7-2.7-5.9-7.5-5.9h-9.5V67Z" fill="#002259"/>
  <path d="M24 77h48" stroke="#0DDE53" stroke-width="4" stroke-linecap="round"/>
</svg>
